<svg xmlns="http://www.w3.org/2000/svg" width="200" height="52" viewBox="0 0 200 52">
  <rect x="1" y="1" width="198" height="50" rx="25" fill="#9AFFC4" stroke="#FFFFFF" stroke-width="2"/>
  <path d="M 46.658 30.716 L 51.974 30.199 C 52.294 31.983 52.943 33.294 53.921 34.131 C 54.899 34.967 56.219 35.386 57.88 35.386 C 59.64 35.386 60.966 35.013 61.858 34.269 C 62.75 33.525 63.196 32.654 63.196 31.657 C 63.196 31.017 63.008 30.473 62.633 30.024 C 62.258 29.575 61.602 29.184 60.667 28.852 C 60.027 28.63 58.569 28.236 56.293 27.67 C 53.364 26.944 51.309 26.052 50.128 24.994 C 48.467 23.505 47.636 21.69 47.636 19.549 C 47.636 18.171 48.027 16.882 48.808 15.682 C 49.59 14.483 50.715 13.569 52.186 12.941 C 53.656 12.314 55.431 12 57.511 12 C 60.907 12 63.463 12.744 65.18 14.233 C 66.897 15.722 67.798 17.71 67.884 20.195 L 62.421 20.435 C 62.187 19.045 61.685 18.045 60.916 17.436 C 60.147 16.827 58.994 16.522 57.456 16.522 C 55.868 16.522 54.625 16.848 53.727 17.5 C 53.149 17.919 52.86 18.479 52.86 19.18 C 52.86 19.82 53.13 20.367 53.672 20.823 C 54.361 21.401 56.034 22.004 58.692 22.632 C 61.35 23.259 63.316 23.908 64.589 24.579 C 65.863 25.249 66.86 26.166 67.579 27.329 C 68.299 28.492 68.659 29.928 68.659 31.639 C 68.659 33.189 68.229 34.641 67.367 35.995 C 66.506 37.348 65.288 38.354 63.713 39.013 C 62.138 39.671 60.175 40 57.825 40 C 54.404 40 51.777 39.209 49.943 37.628 C 48.11 36.047 47.015 33.743 46.658 30.716 Z M 73.329 39.52 L 73.329 12.461 L 78.792 12.461 L 78.792 24.477 L 89.83 12.461 L 97.176 12.461 L 86.987 23.001 L 97.73 39.52 L 90.661 39.52 L 83.222 26.821 L 78.792 31.343 L 78.792 39.52 Z M 100.388 39.52 L 100.388 12.461 L 105.851 12.461 L 105.851 39.52 Z M 111.204 39.52 L 111.204 12.683 L 116.667 12.683 L 116.667 34.961 L 130.252 34.961 L 130.252 39.52 Z M 134.294 39.52 L 134.294 12.683 L 139.757 12.683 L 139.757 34.961 L 153.342 34.961 L 153.342 39.52 Z" fill="#06162B"/>
</svg>